<svg width="24" height="24" viewBox="0 0 24 24" fill="none" xmlns="http://www.w3.org/2000/svg">
<path d="M12 0C5.39207 0 0 5.39207 0 12C0 18.6079 5.39207 24 12 24C12.5286 24 12.8987 23.63 12.8987 23.1013C12.8987 22.6256 12.5286 22.2026 12 22.2026C6.39648 22.2026 1.79736 17.6564 1.79736 12C1.79736 6.39648 6.39648 1.79736 12 1.79736C17.6564 1.79736 22.2026 6.39648 22.2026 12V14.8018C22.2026 15.8062 21.3568 16.652 20.3524 16.652C19.2952 16.652 18.4493 15.8062 18.4493 14.8018V12C18.4493 8.45815 15.5419 5.55066 12 5.55066C8.45815 5.55066 5.55066 8.45815 5.55066 12C5.55066 15.5419 8.45815 18.4493 12 18.4493C14.0088 18.4493 15.7533 17.5507 16.9163 16.1762C17.4978 17.4978 18.8194 18.4493 20.3524 18.4493C22.3612 18.4493 24 16.8106 24 14.8018V12C24 5.39207 18.6079 0 12 0ZM12 16.652C9.46255 16.652 7.34802 14.5903 7.34802 12C7.34802 9.46255 9.46255 7.34802 12 7.34802C14.5903 7.34802 16.652 9.46255 16.652 12C16.652 14.5903 14.5903 16.652 12 16.652Z" fill="white"/>
</svg>
