<svg width="16" height="24" viewBox="0 0 16 24" fill="none" xmlns="http://www.w3.org/2000/svg">
<path d="M14.3492 0H1.65079C0.761905 0 0 0.786885 0 1.70492V22.2951C0 23.2131 0.761905 24 1.65079 24H14.3492C15.2381 24 16 23.2131 16 22.2951V1.70492C16 0.786885 15.2381 0 14.3492 0ZM1.5873 6.55738H14.4127V16.7869H1.5873V6.55738ZM1.65079 1.63934H14.3492L14.4127 1.70492V4.91803H1.5873V1.70492L1.65079 1.63934ZM14.3492 22.3607H1.65079L1.5873 22.2951V18.4262H14.4127V22.2951L14.3492 22.3607Z" fill="white"/>
<path d="M7.99988 18.8197C7.17449 18.8197 6.47607 19.541 6.47607 20.3934C6.47607 21.2459 7.17449 21.9016 7.99988 21.9016C8.82528 21.9016 9.52369 21.2459 9.52369 20.3934C9.52369 19.541 8.82528 18.8197 7.99988 18.8197ZM7.99988 21.0492C7.61893 21.0492 7.36496 20.7213 7.36496 20.3934C7.36496 20 7.61893 19.7377 7.99988 19.7377C8.38084 19.7377 8.6348 20 8.6348 20.3934C8.6348 20.7213 8.38084 21.0492 7.99988 21.0492Z" fill="white"/>
<path d="M6.7301 3.80328H9.26979C9.52376 3.80328 9.77772 3.60656 9.77772 3.27869C9.77772 2.95082 9.52376 2.7541 9.26979 2.7541H6.7301C6.47614 2.7541 6.22217 2.95082 6.22217 3.27869C6.22217 3.60656 6.47614 3.80328 6.7301 3.80328Z" fill="white"/>
</svg>
