<svg width="26" height="24" viewBox="0 0 26 24" fill="none" xmlns="http://www.w3.org/2000/svg">
<path fill-rule="evenodd" clip-rule="evenodd" d="M20.9529 24C20.7235 24 20.5324 23.9212 20.3794 23.803L13.8412 19.2315L10.3235 21.8325C10.0559 22.0296 9.67353 22.069 9.36765 21.9507C9.06176 21.8325 8.79412 21.5566 8.71765 21.2414L6.95882 14.3448L0.65 11.8621C0.267647 11.7044 0 11.3103 0 10.8768C0 10.4433 0.267647 10.0493 0.65 9.89163L24.5853 0.0788177C24.7 0.0394089 24.8147 0 24.9294 0C24.9676 0 25.0059 0 25.0441 0C25.2735 0 25.5029 0.118227 25.6941 0.315271C25.7324 0.315271 25.7324 0.35468 25.7706 0.35468C25.9235 0.551724 26 0.748769 26 0.985222C26 1.02463 26 1.10345 26 1.14286C26 1.18227 26 1.22167 26 1.26108L21.9471 23.133C21.8706 23.4877 21.6412 23.7635 21.3353 23.8818C21.2206 23.9606 21.0676 24 20.9529 24ZM14.4147 17.064L20.2265 21.1232L23.3618 4.13793L12.0059 15.4089L14.3765 17.0246C14.3765 17.064 14.3765 17.064 14.4147 17.064ZM9.55882 16.1576L10.3235 19.1921L12.0059 17.9704L9.78824 16.4335C9.71177 16.3547 9.63529 16.2759 9.55882 16.1576ZM3.86176 10.8768L8.18235 12.5714C8.48824 12.6897 8.71765 12.9655 8.79412 13.2808L9.36765 15.4483C9.36765 15.1724 9.48235 14.936 9.67353 14.7783L20.4941 4.05911L3.86176 10.8768Z" fill="#00A3D3"/>
</svg>
