<svg width="24" height="24" viewBox="0 0 24 24" fill="none" xmlns="http://www.w3.org/2000/svg">
<path fill-rule="evenodd" clip-rule="evenodd" d="M21.5863 2.68609C19.5825 0.827071 16.3491 -0.0808235 11.9772 0.00564266C7.60531 0.0921088 4.64516 0.827071 2.73245 2.34023C0.865275 3.76692 0 5.88534 0 8.99812V12.1541C0 15.7857 2.04934 19.8064 6.01138 20.4117C6.46679 20.4981 6.87666 20.1955 6.96774 19.7632C7.01328 19.3308 6.74004 18.8985 6.28463 18.8553C3.27894 18.3797 1.68501 15.0508 1.68501 12.1541V8.99812C1.68501 4.54512 3.41556 1.73497 12.0228 1.60527C15.9393 1.5188 18.7628 2.25376 20.4023 3.81015C21.723 5.02068 22.3605 6.70677 22.3605 8.99812V12.1541C22.3605 16.9098 20.0835 19.0282 14.2998 19.6335H10.1556C9.92789 19.6335 9.74573 19.7199 9.56357 19.8929L6.6945 22.6165C6.37571 22.9624 6.37571 23.438 6.6945 23.7406C6.83112 23.9135 7.05882 24 7.28653 24C7.46869 24 7.69639 23.9135 7.87856 23.7406L10.5199 21.2331H14.3454C14.3454 21.2331 14.3909 21.2331 14.4364 21.2331C17.7609 20.8872 20.038 20.0658 21.5863 18.6391C23.2258 17.1692 24 15.0508 24 12.1541V8.99812C24 6.31767 23.1803 4.19925 21.5863 2.68609Z" fill="#AD498C"/>
<path fill-rule="evenodd" clip-rule="evenodd" d="M12.5238 5.18797C13.8901 5.18797 15.1197 5.66353 16.076 6.57143C17.0324 7.47932 17.5789 8.68985 17.5789 9.94361C17.5789 10.3759 17.9432 10.765 18.3986 10.765C18.854 10.765 19.2183 10.3759 19.2183 9.94361C19.2183 8.25752 18.5352 6.65789 17.2601 5.44737C15.9849 4.23684 14.2999 3.58834 12.5238 3.58834C12.0684 3.58834 11.7041 3.93421 11.7041 4.36654C11.7041 4.8421 12.0684 5.18797 12.5238 5.18797Z" fill="#AD498C"/>
<path fill-rule="evenodd" clip-rule="evenodd" d="M12.5238 7.95489C13.7079 7.95489 14.6187 8.86278 14.6187 9.94361C14.6187 10.3759 14.983 10.765 15.484 10.765C15.9394 10.765 16.3037 10.3759 16.3037 9.94361C16.3037 7.99812 14.6187 6.3985 12.5238 6.3985C12.0684 6.3985 11.7041 6.74436 11.7041 7.17669C11.7041 7.60902 12.0684 7.95489 12.5238 7.95489Z" fill="#AD498C"/>
<path fill-rule="evenodd" clip-rule="evenodd" d="M8.78937 9.33834C8.42504 9.55451 8.28842 10.0733 8.56167 10.4192C8.83491 10.765 9.33586 10.8947 9.74573 10.6353C10.019 10.4192 10.7476 9.98684 10.6565 9.07895C10.6565 8.51692 10.1101 7.73872 9.70019 7.17669C9.06261 6.3985 8.51612 5.8797 8.10626 5.75C7.69639 5.57707 7.28652 5.57707 6.83112 5.70677C5.9203 6.0094 5.28273 6.52819 4.96394 7.21992C4.64516 7.91165 4.64516 8.68985 4.96394 9.46804C5.78368 11.3271 6.9222 12.9699 8.33396 14.3534C9.74573 15.6936 11.4763 16.7312 13.4345 17.5094C13.8899 17.6823 14.2998 17.7688 14.7097 17.7688C15.074 17.7688 15.4383 17.6823 15.8027 17.5094C16.5313 17.2068 17.0778 16.6015 17.3966 15.7368C17.5332 15.3045 17.5332 14.9154 17.351 14.5263C17.2144 14.1372 16.7135 13.6184 15.8482 13.0132C15.2562 12.6241 14.4364 12.1053 13.8444 12.1053C12.888 12.062 12.4326 12.7105 12.2049 13.0132C11.9772 13.359 12.0683 13.8346 12.4326 14.094C12.797 14.3534 13.3434 14.2669 13.6167 13.8778C13.7078 13.7481 13.7533 13.7049 13.7533 13.6617C14.2543 13.8346 15.5749 14.7425 15.8027 15.0883C15.8027 15.1316 15.8027 15.1748 15.8027 15.218C15.7116 15.5207 15.4839 15.9098 15.1195 16.0827C14.7552 16.2556 14.3453 16.1259 14.0721 16.0395C12.296 15.3477 10.7476 14.3966 9.51802 13.2293C8.24288 12.0188 7.24098 10.5489 6.51233 8.86278C6.42125 8.60338 6.33017 8.21428 6.46679 7.86842C6.64895 7.52256 7.05882 7.34962 7.3776 7.21992C7.42315 7.21992 7.46869 7.21992 7.51423 7.21992C7.87855 7.43609 8.83491 8.68985 9.01707 9.16541C8.97153 9.16541 8.92599 9.25188 8.78937 9.33834Z" fill="#AD498C"/>
</svg>
