<svg width="24" height="24" viewBox="0 0 24 24" fill="none" xmlns="http://www.w3.org/2000/svg">
<path fill-rule="evenodd" clip-rule="evenodd" d="M11.9802 0C5.37727 0 0 5.27302 0 11.748C0 14.3069 1.06755 16.5945 1.50247 17.4475C1.70016 17.8352 2.21417 17.9903 2.60956 17.7964C3.04448 17.6026 3.20264 17.0985 2.9654 16.6721C2.57002 15.9354 1.66063 13.958 1.66063 11.748C1.66063 6.16478 6.28666 1.62843 11.9802 1.62843C17.6738 1.62843 22.2998 6.16478 22.2998 11.748C22.2998 17.3312 17.6738 21.8675 11.9802 21.8675C9.76606 21.8675 7.98682 21.1309 7.3542 20.8207C7.15651 20.7044 6.91928 20.7044 6.72158 20.7431L1.46293 22.4103C1.02801 22.5267 0.790774 22.9919 0.90939 23.4184C1.02801 23.7674 1.34432 24 1.70016 24C1.77924 24 1.89786 24 1.97694 23.9612L6.91928 22.4103C7.94728 22.8756 9.76606 23.5347 11.9802 23.5347C18.6227 23.5347 24 18.2617 24 11.748C24 5.27302 18.6227 0 11.9802 0Z" fill="#00A658"/>
<path fill-rule="evenodd" clip-rule="evenodd" d="M9.60797 9.7706C9.25212 10.042 9.21258 10.546 9.48935 10.895C9.76612 11.2439 10.2801 11.3215 10.636 11.0501C10.9127 10.8562 11.5849 10.3522 11.4663 9.42165C11.4267 8.87884 10.8732 8.14216 10.4383 7.59935C9.76612 6.82391 9.25212 6.39741 8.81719 6.24233C8.42181 6.12601 7.98688 6.16478 7.59149 6.31987C6.72164 6.63005 6.12856 7.21163 5.85179 7.90953C5.57502 8.60743 5.61456 9.38287 6.00994 10.1583C6.8798 11.9418 8.02642 13.4927 9.44981 14.7722C10.9127 16.0129 12.6129 16.9822 14.5503 17.6414C14.9062 17.7577 15.262 17.8352 15.6179 17.8352C16.0528 17.8352 16.4482 17.7189 16.804 17.525C17.5157 17.1761 17.9902 16.517 18.2274 15.664C18.346 15.2375 18.346 14.8498 18.1483 14.462C17.9902 14.0743 17.4762 13.5703 16.6063 13.0275C16.0132 12.6397 15.2225 12.2132 14.6294 12.2132C13.72 12.2132 13.2851 12.9499 13.0874 13.2213C12.8501 13.609 12.9688 14.1131 13.3641 14.3457C13.7595 14.5784 14.2735 14.4233 14.5108 14.0355C14.5898 13.958 14.6294 13.8805 14.6689 13.8417C15.1434 13.9968 16.3691 14.811 16.6459 15.1599C16.6459 15.1599 16.6459 15.1987 16.6459 15.2375C16.5668 15.5089 16.3691 15.8966 16.0528 16.0905C15.7365 16.2456 15.3411 16.168 15.0643 16.0905C13.3641 15.5089 11.8617 14.6559 10.5569 13.5703C9.29166 12.4459 8.26365 11.0501 7.51241 9.42165C7.3938 9.18901 7.27518 8.84006 7.3938 8.49111C7.55195 8.14216 7.9078 7.9483 8.18457 7.83199C8.22411 7.79321 8.26365 7.79321 8.30319 7.79321C8.65904 8.02585 9.60797 9.15024 9.80566 9.61551C9.76612 9.61551 9.72658 9.69305 9.60797 9.7706Z" fill="#00A658"/>
</svg>
